<svg width="109" height="82" viewBox="0 0 109 82" fill="none" xmlns="http://www.w3.org/2000/svg">
<path d="M94.8343 58.5347C94.8343 61.13 94.5088 63.2979 93.8577 65.0383C93.2349 66.7482 92.3432 68.1222 91.1825 69.1604C90.0502 70.1985 88.6773 70.9313 87.0638 71.3588C85.4785 71.7863 83.7376 72 81.8409 72C79.9443 72 78.2034 71.7863 76.6181 71.3588C75.0329 70.9313 73.66 70.1985 72.4993 69.1604C71.367 68.1222 70.4753 66.7482 69.8242 65.0383C69.2015 63.2979 68.8901 61.13 68.8901 58.5347V36.2756C68.8901 35.6649 69.1732 35.3596 69.7393 35.3596H76.6181C77.2126 35.3596 77.5098 35.6649 77.5098 36.2756V58.8553C77.5098 60.7483 77.8354 62.1376 78.4865 63.0231C79.1658 63.878 80.284 64.3055 81.8409 64.3055C83.3979 64.3055 84.516 63.878 85.1954 63.0231C85.8748 62.1376 86.2145 60.7483 86.2145 58.8553V36.2756C86.2145 35.6649 86.4976 35.3596 87.0638 35.3596H93.9426C94.5371 35.3596 94.8343 35.6649 94.8343 36.2756V58.5347Z" fill="#D4D1D6"/>
<path fill-rule="evenodd" clip-rule="evenodd" d="M55.492 45.2525C55.3222 45.4357 55.1523 45.6494 54.9825 45.8937L42.7535 63.3895C42.6119 63.6338 42.5128 63.8475 42.4562 64.0307C42.3996 64.1834 42.3713 64.3971 42.3713 64.6719V70.397C42.3713 71.0077 42.6685 71.313 43.263 71.313H66.3198C66.9143 71.313 67.2115 71.0077 67.2115 70.397V63.9849C67.2115 63.3742 66.9143 63.0689 66.3198 63.0689H53.3265L65.0459 46.0311C65.2158 45.7869 65.2582 45.5579 65.1733 45.3441C65.0884 45.0998 64.8902 44.9777 64.5789 44.9777H56.2139C55.9308 44.9777 55.6902 45.0693 55.492 45.2525Z" fill="#D4D1D6"/>
<path d="M43.8999 43.6037C43.3055 43.6037 43.0082 43.2984 43.0082 42.6877V36.2756C43.0082 35.6649 43.3055 35.3596 43.8999 35.3596H65.513C66.1358 35.3596 66.4472 35.6649 66.4472 36.2756V42.6877C66.4472 43.2984 66.1358 43.6037 65.513 43.6037H43.8999Z" fill="#D4D1D6"/>
<path d="M43.8999 43.6037C43.3055 43.6037 43.0082 43.2984 43.0082 42.6877V36.2756C43.0082 35.6649 43.3055 35.3596 43.8999 35.3596H65.513C66.1358 35.3596 66.4472 35.6649 66.4472 36.2756V42.6877C66.4472 43.2984 66.1358 43.6037 65.513 43.6037H43.8999Z" fill="#D4D1D6"/>
<path d="M40.6755 58.5347C40.6755 61.13 40.35 63.2979 39.6989 65.0383C39.0761 66.7482 38.1844 68.1222 37.0238 69.1604C35.8915 70.1985 34.5185 70.9313 32.905 71.3588C31.3197 71.7863 29.5788 72 27.6822 72C25.7855 72 24.0446 71.7863 22.4594 71.3588C20.8741 70.9313 19.5012 70.1985 18.3406 69.1604C17.2083 68.1222 16.3166 66.7482 15.6655 65.0383C15.0427 63.2979 14.7313 61.13 14.7313 58.5347V36.2756C14.7313 35.6649 15.0144 35.3596 15.5805 35.3596H22.4594C23.0538 35.3596 23.3511 35.6649 23.3511 36.2756V58.8553C23.3511 60.7483 23.6766 62.1376 24.3277 63.0231C25.0071 63.878 26.1252 64.3055 27.6822 64.3055C29.2391 64.3055 30.3573 63.878 31.0367 63.0231C31.716 62.1376 32.0557 60.7483 32.0557 58.8553V36.2756C32.0557 35.6649 32.3388 35.3596 32.905 35.3596H39.7838C40.3783 35.3596 40.6755 35.6649 40.6755 36.2756V58.5347Z" fill="#D4D1D6"/>
<path fill-rule="evenodd" clip-rule="evenodd" d="M18.6321 28.6072L18.6316 28.6054L18.6258 28.5848C18.619 28.561 18.6077 28.5207 18.5924 28.4651C18.5619 28.3538 18.5158 28.1819 18.4594 27.9591C18.3461 27.5122 18.193 26.8681 18.0399 26.1028C17.726 24.5338 17.4462 22.6206 17.4495 20.9017C17.453 19.0544 17.7852 18.2659 17.9198 18.0765C17.9305 18.0731 17.9451 18.0691 17.9641 18.0649C18.1242 18.0292 18.6202 17.978 19.6149 18.2709C24.4853 19.705 26.9356 21.7956 28.133 23.2272C28.7441 23.9579 29.0729 24.569 29.2356 24.929C29.3176 25.1104 29.3588 25.2311 29.3727 25.2745L29.3735 25.2769C29.8822 27.3676 31.843 28.6577 33.8097 28.1703C35.8146 27.6734 37.0664 25.5176 36.6058 23.3551L32.9756 24.2547C36.6058 23.3551 36.6051 23.352 36.6045 23.3489L36.6031 23.3426L36.6003 23.3295L36.594 23.3013C36.5896 23.2817 36.5846 23.2603 36.5792 23.2373C36.5682 23.1913 36.5551 23.1386 36.5396 23.0797C36.5084 22.9617 36.4675 22.8185 36.4144 22.6526C36.3082 22.3208 36.1534 21.8983 35.9316 21.4076C35.4868 20.4235 34.777 19.1753 33.6641 17.8448C31.4135 15.1539 27.6739 12.3147 21.5768 10.5194C18.0146 9.47051 14.5812 9.93831 12.2824 12.823C10.3456 15.2533 10.0046 18.5305 10 20.8849C9.99515 23.4243 10.3926 25.9711 10.758 27.7977C10.9446 28.7301 11.1316 29.5177 11.2736 30.0779C11.3448 30.3587 11.4051 30.5844 11.4491 30.7446C11.4711 30.8248 11.489 30.8888 11.5022 30.9354L11.5184 30.992L11.5236 31.0102L11.5263 31.0194C11.5263 31.0194 11.5269 31.0216 15.0793 29.8135L11.5269 31.0216C12.1455 33.1377 14.2374 34.3123 16.1993 33.6451C18.1607 32.9781 19.2496 30.7228 18.6321 28.6072Z" fill="#D4D1D6"/>
<path fill-rule="evenodd" clip-rule="evenodd" d="M90.2735 28.5993L90.274 28.5976L90.2799 28.577C90.2867 28.5532 90.298 28.5128 90.3132 28.4572C90.3437 28.346 90.3898 28.1741 90.4463 27.9513C90.5595 27.5044 90.7127 26.8603 90.8658 26.095C91.1797 24.526 91.4595 22.6128 91.4562 20.8938C91.4526 19.0466 91.1205 18.2581 90.9859 18.0687C90.9751 18.0653 90.9605 18.0613 90.9416 18.057C90.7814 18.0213 90.2855 17.9702 89.2907 18.2631C84.4204 19.6972 81.97 21.7878 80.7727 23.2194C80.1615 23.95 79.8328 24.5612 79.67 24.9212C79.5881 25.1026 79.5469 25.2232 79.533 25.2667L79.5322 25.2691C79.0235 27.3598 77.0627 28.6499 75.0959 28.1625C73.0911 27.6656 71.8392 25.5098 72.2999 23.3473L75.93 24.2469C72.2999 23.3473 72.3005 23.3442 72.3012 23.3411L72.3025 23.3348L72.3054 23.3217L72.3117 23.2935C72.3161 23.2738 72.321 23.2525 72.3265 23.2295C72.3374 23.1835 72.3505 23.1308 72.3661 23.0719C72.3972 22.9539 72.4382 22.8106 72.4913 22.6448C72.5974 22.313 72.7523 21.8905 72.9741 21.3998C73.4189 20.4157 74.1287 19.1675 75.2415 17.837C77.4922 15.1461 81.2318 12.3069 87.3289 10.5116C90.8911 9.4627 94.3245 9.9305 96.6233 12.8152C98.5601 15.2455 98.9011 18.5227 98.9056 20.8771C98.9105 23.4165 98.5131 25.9633 98.1477 27.7899C97.9611 28.7223 97.7741 29.5098 97.6321 30.0701C97.5609 30.3509 97.5006 30.5765 97.4566 30.7368C97.4347 30.817 97.4167 30.881 97.4035 30.9276L97.3873 30.9842L97.382 31.0024L97.3794 31.0116C97.3794 31.0116 97.3788 31.0138 93.8264 29.8057L97.3787 31.0138C96.7602 33.1299 94.6683 34.3045 92.7064 33.6373C90.745 32.9703 89.6561 30.715 90.2735 28.5993Z" fill="#D4D1D6"/>
</svg>
