<svg width="256" height="214" viewBox="0 0 256 214" fill="none" xmlns="http://www.w3.org/2000/svg">
<path d="M184.11 128.218L202.288 120.84L208.853 141.45L190.676 147.955L184.11 128.218Z" fill="#767676"/>
<path d="M129.303 143.76L191.057 119.47L207.264 150.488L120.11 192.136L129.303 143.76Z" fill="#767676"/>
<path d="M230.296 140.525C228.797 141.117 227.23 141.526 225.631 141.741C219.22 143.007 208.352 144.565 207.315 143.846C206.279 143.127 200.404 123.886 198.676 118.169C198.545 117.724 198.588 117.246 198.796 116.831C199.004 116.415 199.362 116.093 199.799 115.926C201.488 115.42 203.09 114.664 204.551 113.684C204.758 113.033 212.637 85.0454 214.33 82.8714C217.406 80.6602 221.105 79.4626 224.905 79.4478C225.924 79.8415 231.177 139.721 230.296 140.525Z" fill="#767676"/>
<path d="M191.384 163.875L207.902 174.403L194.615 191.538L178.822 180.531L191.384 163.875Z" fill="#767676"/>
<path d="M207.643 208.467C206.293 207.58 205.052 206.54 203.945 205.369C199.228 200.901 191.747 193.026 191.712 191.674C191.677 190.322 204.187 174.556 208.006 169.848C208.293 169.483 208.712 169.24 209.174 169.17C209.637 169.1 210.109 169.208 210.494 169.472C211.88 170.553 213.424 171.418 215.073 172.04C215.729 171.834 243.393 162.18 246.175 162.317C249.766 163.55 252.885 165.852 255.108 168.907C255.367 170.071 208.922 208.672 207.643 208.467Z" fill="#767676"/>
<path d="M207.643 208.467C206.293 207.58 205.052 206.54 203.945 205.369L251.895 165.552C253.161 166.491 254.245 167.651 255.091 168.975C255.368 170.071 208.922 208.672 207.643 208.467Z" fill="#767676"/>
<path d="M234.247 140.187C232.744 140.785 231.177 141.207 229.576 141.444L223.834 79.6606C225.333 79.1608 226.91 78.9361 228.489 78.9976C229.555 79.3948 235.144 139.26 234.247 140.187Z" fill="#767676"/>
<path d="M7.98805 85.0287C7.98805 85.0287 6.86493 76.2642 6.84766 72.3442C6.84766 63.3743 9.94055 53.1205 13.5691 52.0934C15.0378 51.6826 14.7959 56.7838 14.7959 56.7838C14.7959 56.7838 17.8715 48.2248 19.6166 48.9095C21.3618 49.5942 20.9125 54.6098 20.9125 54.6098C20.9125 54.6098 23.1069 48.7554 25.3013 49.851C27.4957 50.9465 24.1955 68.2872 25.3013 68.9377C26.4072 69.5881 29.0163 64.1617 30.7787 66.1132C32.5411 68.0646 29.4655 83.4709 23.7635 84.5494C18.5317 85.1972 13.2501 85.3577 7.98805 85.0287Z" fill="#767676"/>
<path d="M115.946 104.577C115.946 104.577 114.218 89.1706 115.946 87.4588C117.784 86.0604 119.854 84.9889 122.062 84.2919C122.062 84.2919 124.464 81.3819 127.246 81.8098C127.612 81.8725 127.96 82.0107 128.269 82.2157C128.577 82.4207 128.838 82.6877 129.036 82.9994C129.233 83.3111 129.362 83.6604 129.413 84.0247C129.465 84.389 129.439 84.76 129.337 85.1136C129.337 85.1136 137.216 87.4587 138.097 90.4886C138.978 93.5186 134.157 106.306 134.157 106.306L115.946 104.577Z" fill="#767676"/>
<path d="M53.6563 115.807C53.6563 115.807 36.9996 114.232 32.6108 107.727C28.222 101.222 28.2912 82.5293 28.2912 82.5293H5.51777C5.51777 82.5293 -3.95098 105.091 4.20459 127.944C12.5675 151.361 44.9306 153.107 44.9306 153.107L52.3777 177.98L100.551 164.388C100.551 164.388 83.2721 120.412 81.1295 119.556C78.987 118.7 53.6563 115.807 53.6563 115.807Z" fill="#767676"/>
<path d="M80.7314 116.458C80.7314 116.458 94.5544 121.165 100.55 117.69C106.546 114.215 114.563 102.626 114.563 102.626L136.023 104.509C136.023 104.509 137.855 137.205 116.481 146.894C102.762 153.108 85.5177 153.108 85.5177 153.108L80.7314 116.458Z" fill="#767676"/>
<path d="M53.9502 177.535C53.9502 177.535 62.0885 214.715 88.3522 213.62C114.616 212.524 134.331 178.117 136.093 177.98C137.856 177.843 187.117 196.056 187.117 196.056L200.474 160.108C200.474 160.108 140.689 134.294 125.139 139.07C109.588 143.846 87.1254 168.171 87.1254 168.171L53.9502 177.535Z" fill="#767676"/>
<path d="M71.8503 126.523C71.8503 126.523 86.6064 119.521 85.1549 115.978C83.7035 112.434 75.7726 108.497 67.8762 108.891C59.9798 109.285 51.375 113.667 51.375 117.621C51.375 121.575 71.8503 126.523 71.8503 126.523Z" fill="#767676"/>
<path d="M62.6406 110.244L64.0056 119.316C64.0056 119.316 66.0445 121.679 71.4701 121.319C75.5133 121.045 76.7746 119.95 76.7746 119.95L75.5306 115.431L74.3038 111.031L64.3167 110.364L62.6406 110.244Z" fill="#767676"/>
<path d="M64.3167 110.364C64.3971 110.665 64.5314 110.948 64.7138 111.202C67.4439 115.43 73.1979 115.568 75.5306 115.431L74.3038 111.031L64.3167 110.364Z" fill="#767676"/>
<path d="M73.2158 90.0614C73.2158 90.0614 79.7471 100.726 78.7968 107.316C77.8465 113.907 71.8853 113.684 68.2049 112.931C66.1419 112.552 64.22 111.63 62.6412 110.261C61.6817 110.682 60.6127 110.793 59.586 110.577C58.5594 110.362 57.6272 109.832 56.9219 109.063C54.3301 106.341 55.194 102.712 56.9219 101.667C57.5783 101.382 58.2872 101.235 59.004 101.235C59.7207 101.235 60.4297 101.382 61.0861 101.667L58.909 98.6034C58.909 98.6034 63.9889 80.9032 73.2158 90.0614Z" fill="#767676"/>
<path d="M61.1193 101.667C62.3709 101.234 63.5116 100.535 64.4609 99.618C65.4102 98.7011 66.1451 97.5893 66.6139 96.3607C66.9806 95.3916 67.1422 94.3581 67.0887 93.3245C67.0352 92.2909 66.7677 91.2792 66.3029 90.3523C66.8991 89.9054 67.5895 89.5978 68.3226 89.4525C69.0557 89.3073 69.8124 89.3281 70.5362 89.5135C72.2936 90.0095 73.7871 91.1637 74.7004 92.7317C74.7004 92.7317 80.4024 86.9457 77.7242 83.1113C75.046 79.2768 70.8127 83.4708 70.8127 83.4708C70.8127 83.4708 70.9163 79.3453 64.4368 80.9373C57.9573 82.5293 58.3893 90.7631 58.3893 90.7631C58.3893 90.7631 55.7111 88.5206 54.0869 94.1867C52.4627 99.8528 56.2813 102.318 56.2813 102.318C57.7541 101.506 59.4814 101.274 61.1193 101.667Z" fill="#767676"/>
<path d="M61.4652 106.597H61.3097L56.7308 104.269C56.689 104.248 56.652 104.218 56.6221 104.182C56.5923 104.146 56.5702 104.104 56.5572 104.059C56.5443 104.014 56.5408 103.967 56.5468 103.921C56.5529 103.875 56.5685 103.83 56.5926 103.79C56.6125 103.749 56.6408 103.713 56.6757 103.683C56.7106 103.654 56.7513 103.632 56.7952 103.619C56.8392 103.606 56.8854 103.602 56.9308 103.608C56.9763 103.614 57.02 103.629 57.0591 103.653L61.638 105.964C61.6799 105.985 61.7169 106.015 61.7467 106.051C61.7766 106.087 61.7986 106.129 61.8116 106.174C61.8245 106.219 61.8281 106.266 61.822 106.312C61.8159 106.359 61.8003 106.403 61.7762 106.443C61.7441 106.495 61.698 106.537 61.643 106.564C61.588 106.592 61.5264 106.603 61.4652 106.597Z" fill="#767676"/>
<path d="M57.6984 107.111C57.6282 107.107 57.5604 107.085 57.5025 107.045C57.4445 107.006 57.3987 106.952 57.3701 106.888C57.3393 106.801 57.3417 106.706 57.3767 106.621C57.4117 106.536 57.477 106.467 57.5601 106.426L60.1692 105.33C60.2565 105.296 60.3538 105.296 60.4408 105.331C60.5279 105.366 60.5977 105.434 60.6357 105.519C60.6554 105.561 60.6661 105.607 60.6671 105.654C60.6681 105.701 60.6595 105.747 60.6416 105.791C60.6238 105.834 60.5973 105.873 60.5635 105.906C60.5298 105.939 60.4897 105.964 60.4457 105.981L57.8366 107.076L57.6984 107.111Z" fill="#767676"/>
<path d="M66.2166 96.0184H66.0438C65.9627 95.9717 65.903 95.8957 65.8772 95.8063C65.8515 95.717 65.8616 95.6212 65.9056 95.5391C66.2032 94.9205 66.7188 94.4311 67.3553 94.1631C67.9918 93.8951 68.7053 93.867 69.3614 94.084C69.4048 94.0993 69.4447 94.123 69.4788 94.1538C69.5129 94.1846 69.5404 94.2218 69.5597 94.2633C69.579 94.3047 69.5898 94.3496 69.5913 94.3953C69.5929 94.4409 69.5852 94.4865 69.5687 94.5291C69.5555 94.5737 69.5329 94.6149 69.5023 94.6501C69.4716 94.6853 69.4338 94.7135 69.3912 94.733C69.3487 94.7525 69.3024 94.7627 69.2555 94.7629C69.2086 94.7632 69.1622 94.7535 69.1194 94.7345C68.6229 94.5842 68.0881 94.6176 67.6146 94.8286C67.141 95.0395 66.7609 95.4137 66.5449 95.8815C66.5056 95.9291 66.4552 95.9665 66.398 95.9904C66.3407 96.0143 66.2785 96.0239 66.2166 96.0184Z" fill="#767676"/>
<path d="M72.5585 94.3063C72.5051 94.3051 72.4526 94.2921 72.4048 94.2684C72.357 94.2448 72.3151 94.211 72.282 94.1694C72.2176 94.1025 72.1816 94.0136 72.1816 93.9211C72.1816 93.8287 72.2176 93.7398 72.282 93.6729C72.6922 93.3642 73.1865 93.1845 73.7009 93.157C74.2153 93.1296 74.7262 93.2556 75.1676 93.5189C75.2426 93.5709 75.2962 93.6481 75.3185 93.7362C75.3407 93.8242 75.3301 93.9173 75.2885 93.9982C75.2637 94.0388 75.231 94.0742 75.1924 94.1022C75.1537 94.1302 75.1098 94.1504 75.0632 94.1615C75.0166 94.1727 74.9682 94.1746 74.9209 94.1671C74.8736 94.1597 74.8282 94.143 74.7874 94.118C74.4738 93.929 74.11 93.8377 73.7434 93.856C73.3768 93.8744 73.0241 94.0014 72.7313 94.2207C72.6825 94.2642 72.6228 94.2938 72.5585 94.3063Z" fill="#767676"/>
<path d="M74.3376 104.663C74.2877 104.661 74.2387 104.649 74.1934 104.628C74.1481 104.607 74.1074 104.578 74.0737 104.541C74.04 104.505 74.0139 104.462 73.997 104.415C73.98 104.369 73.9724 104.319 73.9747 104.27C74.1188 103.266 74.0388 102.242 73.7402 101.272C73.4417 100.302 72.9319 99.4087 72.2469 98.655C72.1824 98.5882 72.1465 98.4992 72.1465 98.4068C72.1465 98.3143 72.1824 98.2255 72.2469 98.1586C72.2776 98.1254 72.315 98.0989 72.3566 98.0807C72.3983 98.0626 72.4433 98.0532 72.4888 98.0532C72.5343 98.0532 72.5792 98.0626 72.6209 98.0807C72.6625 98.0989 72.6999 98.1254 72.7307 98.1586C73.4881 98.992 74.0485 99.9821 74.3713 101.057C74.6941 102.132 74.7711 103.264 74.5968 104.372C74.5884 104.441 74.5591 104.506 74.5128 104.558C74.4666 104.61 74.4054 104.647 74.3376 104.663Z" fill="#767676"/>
<path d="M85.1549 115.978C85.1549 115.978 86.1221 119.402 81.6987 122.175C78.5994 124.06 75.2575 125.523 71.7634 126.523C66.4166 125.495 61.1678 124.017 56.0743 122.106C51.3572 120.103 49.9749 117.741 51.841 115.721C53.7071 113.701 60.6186 113.376 60.6186 113.376C62.9922 113.991 65.3053 114.816 67.5301 115.841C68.7411 116.517 69.9934 117.117 71.2796 117.638C73.2263 116.058 75.4209 114.803 77.7764 113.924C80.6274 113.154 81.2322 114.009 81.2322 114.009L85.1549 115.978Z" fill="#767676"/>
<path d="M69.2238 100.726C69.1575 100.725 69.0929 100.705 69.0378 100.668C68.9827 100.632 68.9392 100.581 68.9127 100.52L67.997 98.5518C67.9777 98.5102 67.9669 98.4652 67.9651 98.4195C67.9633 98.3738 67.9707 98.3281 67.9867 98.2852C68.0028 98.2423 68.0272 98.2029 68.0586 98.1694C68.09 98.1358 68.1278 98.1087 68.1698 98.0895C68.2117 98.0704 68.2571 98.0597 68.3033 98.058C68.3494 98.0563 68.3955 98.0635 68.4388 98.0794C68.4821 98.0953 68.5219 98.1195 68.5557 98.1506C68.5896 98.1817 68.617 98.2191 68.6363 98.2607L69.552 100.229C69.5881 100.314 69.5903 100.408 69.5582 100.494C69.5261 100.58 69.4621 100.651 69.3793 100.692L69.2238 100.726Z" fill="#767676"/>
<path d="M75.9788 99.7326C75.9115 99.7364 75.8447 99.7183 75.7887 99.6813C75.7326 99.6442 75.6901 99.5901 75.6678 99.5271L74.752 97.5757C74.7319 97.5342 74.7203 97.4892 74.7182 97.4433C74.716 97.3973 74.7232 97.3513 74.7393 97.3082C74.7554 97.2651 74.7802 97.2256 74.812 97.1921C74.8439 97.1587 74.8822 97.132 74.9248 97.1135C74.9666 97.0935 75.0121 97.0821 75.0585 97.08C75.1049 97.0778 75.1512 97.0849 75.1948 97.1009C75.2383 97.1168 75.2781 97.1414 75.3119 97.173C75.3457 97.2045 75.3727 97.2425 75.3913 97.2846L76.3071 99.2361C76.3431 99.3205 76.3453 99.4153 76.3132 99.5012C76.2811 99.5871 76.2171 99.6576 76.1343 99.6983C76.0874 99.7256 76.033 99.7376 75.9788 99.7326Z" fill="#767676"/>
<path d="M73.4911 109.217H73.4047L69.828 108.275C69.776 108.258 69.7279 108.232 69.6864 108.196C69.6449 108.161 69.6108 108.118 69.5861 108.07C69.5603 108.019 69.5469 107.964 69.5469 107.907C69.5469 107.851 69.5603 107.795 69.5861 107.745C70.0527 107.008 71.314 105.776 72.679 106.461C73.1534 106.665 73.5315 107.041 73.7369 107.511C73.9422 107.981 73.9594 108.512 73.7849 108.994C73.7641 109.056 73.725 109.111 73.6726 109.15C73.6202 109.19 73.557 109.213 73.4911 109.217ZM70.5192 107.71L73.2319 108.429C73.2601 108.145 73.1944 107.86 73.0449 107.616C72.8953 107.372 72.6699 107.183 72.4026 107.077C71.6423 106.683 70.9166 107.282 70.5192 107.71Z" fill="#767676"/>
<path d="M125.38 100.726H125.276C125.231 100.712 125.19 100.69 125.154 100.66C125.118 100.63 125.088 100.593 125.067 100.551C125.046 100.509 125.034 100.464 125.031 100.417C125.029 100.371 125.036 100.324 125.052 100.281C126.572 95.2993 121.838 90.1467 121.803 90.0098C121.761 89.9649 121.73 89.9098 121.715 89.8498C121.7 89.7899 121.701 89.7271 121.717 89.6675C121.743 89.6099 121.781 89.5585 121.828 89.5171C121.876 89.4757 121.933 89.4452 121.994 89.4278C123.663 89.1608 125.202 88.3686 126.382 87.1682C126.439 87.0998 126.476 87.0182 126.491 86.9312C126.506 86.8443 126.499 86.7549 126.469 86.6718C126.123 85.7645 123.531 84.8402 121.976 84.4807C121.886 84.4565 121.808 84.3984 121.759 84.3185C121.711 84.2387 121.696 84.1434 121.717 84.0527C121.727 84.0089 121.746 83.9675 121.772 83.9308C121.799 83.8942 121.832 83.863 121.871 83.8392C121.909 83.8153 121.952 83.7992 121.997 83.7918C122.042 83.7844 122.088 83.7858 122.132 83.7959C122.581 83.8986 126.538 84.8744 127.125 86.415C127.2 86.6045 127.224 86.8101 127.193 87.0113C127.163 87.2126 127.08 87.4024 126.953 87.5619C125.847 88.8165 124.352 89.6715 122.702 89.9927C123.877 91.3964 127.108 95.8642 125.726 100.401C125.717 100.487 125.678 100.567 125.614 100.627C125.551 100.687 125.468 100.722 125.38 100.726Z" fill="#767676"/>
<path d="M129.543 99.3045C128.674 99.2147 127.836 98.9327 127.091 98.4794C126.347 98.0261 125.714 97.4131 125.241 96.6854C125.203 96.6295 125.184 96.564 125.184 96.4971C125.184 96.4301 125.203 96.3647 125.241 96.3088C127.167 92.7879 128.426 88.9471 128.955 84.9766C128.963 84.9316 128.98 84.8887 129.005 84.8502C129.03 84.8116 129.062 84.7783 129.099 84.7521C129.137 84.7258 129.18 84.7072 129.225 84.6973C129.27 84.6874 129.316 84.6863 129.362 84.6942C129.407 84.702 129.45 84.7186 129.489 84.7431C129.528 84.7676 129.562 84.7994 129.588 84.8368C129.615 84.8741 129.633 84.9163 129.643 84.9609C129.653 85.0054 129.655 85.0515 129.647 85.0964C129.102 89.0774 127.85 92.9314 125.949 96.4799C126.467 97.1989 128.541 99.6639 131.34 98.1918C132.429 97.5755 133.154 91.3445 133.344 87.4929C133.357 87.4022 133.402 87.3191 133.472 87.2593C133.542 87.1994 133.632 87.1668 133.724 87.1677C133.771 87.1698 133.817 87.1814 133.86 87.2017C133.902 87.222 133.94 87.2507 133.97 87.286C134.001 87.3212 134.024 87.3623 134.038 87.4067C134.053 87.4512 134.057 87.498 134.053 87.5443C134.053 89.2561 133.431 97.8152 131.686 98.7909C131.028 99.1428 130.29 99.3197 129.543 99.3045Z" fill="#767676"/>
<path d="M133.467 100.743C133.063 100.756 132.663 100.662 132.309 100.469C131.969 100.239 131.687 99.9335 131.486 99.577C131.285 99.2206 131.171 98.8227 131.151 98.4149C131.151 98.3224 131.187 98.2335 131.251 98.1666C131.316 98.0996 131.404 98.0598 131.497 98.0554C131.704 98.0554 131.86 98.2095 131.86 98.3978C131.873 98.6864 131.951 98.9684 132.089 99.2232C132.226 99.478 132.42 99.6989 132.655 99.8699C133.398 100.281 134.642 100.007 136.266 99.0825C136.349 99.039 136.445 99.0289 136.536 99.0544C136.626 99.0799 136.703 99.1391 136.75 99.2194C136.774 99.2596 136.789 99.3042 136.795 99.3505C136.802 99.3968 136.798 99.4438 136.785 99.4887C136.772 99.5336 136.75 99.5754 136.72 99.6115C136.69 99.6476 136.653 99.6773 136.611 99.6987C135.669 100.304 134.587 100.664 133.467 100.743Z" fill="#767676"/>
<path d="M11.6683 69.3649C11.5823 69.3653 11.4993 69.334 11.4354 69.277C11.3715 69.2201 11.3313 69.1415 11.3227 69.0568C11.3154 69.0127 11.3173 68.9676 11.3284 68.9244C11.3394 68.8811 11.3593 68.8405 11.3869 68.8052C11.4144 68.7698 11.449 68.7405 11.4885 68.719C11.528 68.6975 11.5716 68.6843 11.6164 68.6802L24.3163 66.9684C24.4023 66.97 24.4849 67.0017 24.5494 67.058C24.6139 67.1143 24.6561 67.1915 24.6686 67.2757C24.681 67.36 24.6629 67.4459 24.6173 67.5182C24.5718 67.5904 24.5019 67.6443 24.42 67.6702L11.7201 69.382L11.6683 69.3649Z" fill="#767676"/>
<path d="M18.0101 82.0327C17.9632 82.0328 17.9168 82.0234 17.8737 82.0051C17.8306 81.9869 17.7917 81.9601 17.7594 81.9265C17.7271 81.8929 17.702 81.8531 17.6857 81.8095C17.6694 81.766 17.6621 81.7196 17.6645 81.6732C17.7315 79.0589 18.4477 76.5011 19.7495 74.2261C21.0514 71.9511 22.899 70.0288 25.1289 68.6293C25.1694 68.6054 25.2144 68.5899 25.2611 68.5839C25.3079 68.5779 25.3554 68.5814 25.4007 68.5942C25.446 68.6071 25.4882 68.6289 25.5246 68.6585C25.5611 68.6881 25.5911 68.7247 25.6127 68.7662C25.6526 68.8491 25.6606 68.9435 25.6351 69.0318C25.6097 69.12 25.5525 69.196 25.4745 69.2455C23.3501 70.5866 21.5912 72.4247 20.3528 74.5979C19.1144 76.7711 18.4345 79.2127 18.3729 81.7075C18.3643 81.7968 18.3223 81.8797 18.2552 81.9398C18.188 82 18.1006 82.0331 18.0101 82.0327Z" fill="#767676"/>
<path d="M128.18 188.113C128.123 188.129 128.063 188.129 128.007 188.113C127.966 188.09 127.931 188.06 127.903 188.023C127.875 187.986 127.855 187.944 127.843 187.899C127.832 187.854 127.83 187.808 127.837 187.762C127.845 187.717 127.861 187.673 127.886 187.634C129.372 185.186 134.4 177.26 136.18 177.688C137.959 178.116 144.163 180.205 144.439 180.29C144.527 180.321 144.6 180.385 144.642 180.468C144.683 180.551 144.691 180.647 144.664 180.735C144.65 180.78 144.627 180.821 144.597 180.857C144.567 180.893 144.529 180.922 144.487 180.942C144.445 180.963 144.399 180.975 144.352 180.978C144.306 180.981 144.259 180.974 144.214 180.958C144.214 180.958 137.666 178.784 136.007 178.373C134.953 178.373 131.342 183.286 128.491 187.993C128.451 188.036 128.403 188.068 128.349 188.089C128.295 188.11 128.237 188.118 128.18 188.113Z" fill="#767676"/>
<path d="M136.092 178.322C136.021 178.323 135.951 178.302 135.893 178.262C135.834 178.222 135.789 178.166 135.764 178.1C135.436 177.244 132.723 169.643 134.036 167.401C134.139 167.221 134.28 167.067 134.451 166.948C134.621 166.83 134.816 166.75 135.021 166.716C135.218 166.688 135.419 166.705 135.608 166.768C135.797 166.83 135.969 166.936 136.11 167.075C137.838 168.787 136.576 177.09 136.421 178.031C136.407 178.106 136.369 178.174 136.313 178.227C136.257 178.279 136.186 178.312 136.11 178.322H136.092ZM135.246 167.401H135.142C135.04 167.416 134.943 167.455 134.859 167.514C134.775 167.574 134.706 167.652 134.658 167.743C133.829 169.13 135.038 173.7 135.954 176.456C136.334 173.495 136.697 168.633 135.626 167.555C135.576 167.505 135.517 167.465 135.452 167.439C135.386 167.412 135.316 167.399 135.246 167.401Z" fill="#767676"/>
<path d="M178.822 193.352H178.701C178.613 193.32 178.541 193.257 178.499 193.174C178.457 193.091 178.449 192.995 178.477 192.907L191.263 156.787L142.157 140.371C142.069 140.34 141.996 140.276 141.954 140.193C141.912 140.11 141.905 140.015 141.932 139.926C141.948 139.883 141.972 139.843 142.003 139.81C142.034 139.776 142.071 139.749 142.113 139.729C142.155 139.71 142.2 139.7 142.247 139.698C142.293 139.697 142.339 139.704 142.382 139.721L191.816 156.24C191.863 156.246 191.907 156.266 191.944 156.296C191.981 156.326 192.008 156.366 192.023 156.411C192.045 156.453 192.056 156.5 192.056 156.548C192.056 156.595 192.045 156.642 192.023 156.685L179.133 193.146C179.105 193.205 179.061 193.255 179.007 193.292C178.952 193.328 178.888 193.349 178.822 193.352Z" fill="#767676"/>
<path d="M198.054 155.246C197.988 155.245 197.924 155.225 197.868 155.189C197.813 155.153 197.77 155.101 197.743 155.041L181.605 123.218C181.564 123.137 181.557 123.042 181.586 122.955C181.615 122.869 181.678 122.797 181.761 122.756C181.843 122.715 181.939 122.709 182.026 122.738C182.114 122.766 182.186 122.829 182.227 122.91L198.383 154.733C198.425 154.817 198.433 154.914 198.404 155.004C198.375 155.094 198.311 155.168 198.227 155.212L198.054 155.246Z" fill="#767676"/>
<path d="M78.8999 175.018C78.3643 175.018 78.157 174.71 78.1397 174.419C78.0187 172.981 83.4788 168.393 87.0901 167.811C87.1651 167.801 87.2414 167.814 87.3092 167.848C87.3769 167.881 87.433 167.934 87.4702 167.999C87.5111 168.057 87.533 168.126 87.533 168.196C87.533 168.267 87.5111 168.335 87.4702 168.393C86.7618 169.078 81.0598 175.018 78.8999 175.018ZM78.8999 174.316C80.1786 174.316 83.617 171.286 86.0879 168.804C82.6322 169.951 79.0036 173.511 78.8999 174.316Z" fill="#767676"/>
<path d="M64.317 137.701C64.2701 137.703 64.2233 137.696 64.1794 137.68C64.1355 137.664 64.0953 137.639 64.0614 137.607C64.0274 137.575 64.0004 137.536 63.982 137.494C63.9635 137.451 63.954 137.405 63.9541 137.359V127.858C63.954 127.812 63.9635 127.766 63.982 127.723C64.0004 127.68 64.0274 127.642 64.0614 127.61C64.0953 127.578 64.1355 127.553 64.1794 127.537C64.2233 127.521 64.2701 127.513 64.317 127.516C64.4086 127.516 64.4965 127.552 64.5613 127.616C64.6261 127.68 64.6625 127.767 64.6625 127.858V137.359C64.6625 137.449 64.6261 137.536 64.5613 137.601C64.4965 137.665 64.4086 137.701 64.317 137.701Z" fill="#767676"/>
<path d="M80.7323 136.4C80.6545 136.4 80.579 136.374 80.5167 136.328C80.4545 136.282 80.4089 136.217 80.3867 136.143L78.1059 127.961C78.0807 127.872 78.092 127.777 78.1374 127.697C78.1828 127.617 78.2585 127.558 78.3478 127.533C78.4372 127.508 78.5329 127.519 78.6139 127.564C78.6949 127.609 78.7546 127.684 78.7798 127.772L81.0779 135.955C81.099 136.046 81.0838 136.141 81.0354 136.221C80.9871 136.3 80.9094 136.359 80.8187 136.383L80.7323 136.4Z" fill="#767676"/>
<path d="M29.8106 118.271C29.4972 118.261 29.1926 118.166 28.9294 117.998C28.6716 117.858 28.4539 117.657 28.2967 117.411C28.1395 117.165 28.048 116.884 28.0309 116.594C27.7545 113.804 33.0763 108.822 33.2145 108.617C33.2762 108.577 33.3483 108.556 33.4219 108.556C33.4955 108.556 33.5675 108.577 33.6292 108.617C33.6909 108.654 33.7411 108.707 33.7746 108.77C33.8081 108.834 33.8236 108.905 33.8193 108.976C33.6984 109.798 32.7135 117.073 30.3636 118.186C30.1865 118.249 29.9988 118.278 29.8106 118.271ZM33.0418 109.849C31.3139 111.561 28.5493 114.779 28.7393 116.525C28.7536 116.704 28.8113 116.877 28.9076 117.029C29.0039 117.181 29.1359 117.308 29.2923 117.398C29.4142 117.49 29.5595 117.547 29.712 117.562C29.8645 117.577 30.0183 117.55 30.1562 117.484C31.6249 116.799 32.6789 112.4 33.0418 109.849Z" fill="#767676"/>
<path d="M104.698 123.544C104.41 123.548 104.126 123.483 103.868 123.356C101.743 122.415 100.274 117.998 100.205 117.81C100.187 117.739 100.188 117.665 100.21 117.596C100.231 117.526 100.271 117.464 100.326 117.416C100.385 117.378 100.454 117.357 100.525 117.357C100.595 117.357 100.664 117.378 100.724 117.416C101.657 117.947 106.339 120.72 106.218 122.449C106.202 122.665 106.12 122.872 105.985 123.043C105.85 123.213 105.666 123.34 105.458 123.407C105.216 123.502 104.958 123.548 104.698 123.544ZM101.242 118.512C101.778 119.83 102.866 122.141 104.179 122.723C104.336 122.795 104.507 122.832 104.68 122.832C104.853 122.832 105.024 122.795 105.181 122.723C105.527 122.569 105.544 122.415 105.544 122.363C105.579 121.559 103.264 119.778 101.225 118.512H101.242Z" fill="#767676"/>
<path d="M95.7289 152.696C95.6527 152.699 95.5774 152.678 95.5149 152.634C95.4524 152.591 95.4061 152.528 95.3833 152.456L92.0658 142.887C92.0493 142.844 92.0416 142.799 92.0432 142.753C92.0447 142.708 92.0555 142.663 92.0748 142.621C92.0941 142.58 92.1216 142.543 92.1557 142.512C92.1897 142.481 92.2297 142.457 92.2731 142.442C92.3625 142.415 92.4592 142.422 92.5429 142.464C92.6266 142.505 92.6909 142.577 92.7224 142.665L96.0572 152.234C96.0733 152.277 96.0802 152.324 96.0775 152.37C96.0749 152.417 96.0627 152.462 96.0416 152.504C96.0206 152.546 95.9912 152.583 95.9553 152.613C95.9193 152.643 95.8776 152.665 95.8326 152.679L95.7289 152.696Z" fill="#767676"/>
<path d="M75.4775 20.1382C75.4775 19.1782 76.2558 18.4 77.2157 18.4C78.1757 18.4 78.9539 19.1782 78.9539 20.1382V56.9118C78.9539 57.8718 78.1757 58.65 77.2157 58.65C76.2558 58.65 75.4775 57.8718 75.4775 56.9118V20.1382Z" fill="#767676"/>
<path d="M88.2236 1.7382C88.2236 0.778219 89.0019 0 89.9618 0C90.9218 0 91.7 0.778217 91.7 1.7382V38.5118C91.7 39.4718 90.9218 40.25 89.9618 40.25C89.0019 40.25 88.2236 39.4718 88.2236 38.5118V1.7382Z" fill="#767676"/>
<path d="M163.546 67.2882C163.546 66.3283 164.324 65.55 165.284 65.55C166.244 65.55 167.022 66.3283 167.022 67.2882V104.062C167.022 105.022 166.244 105.8 165.284 105.8C164.324 105.8 163.546 105.022 163.546 104.062V67.2882Z" fill="#767676"/>
<path d="M175.135 50.0382C175.135 49.0783 175.913 48.3 176.873 48.3C177.833 48.3 178.611 49.0783 178.611 50.0382V86.8119C178.611 87.7718 177.833 88.55 176.873 88.55C175.913 88.55 175.135 87.7718 175.135 86.8119V50.0382Z" fill="#767676"/>
</svg>
