<svg width="140" height="98" viewBox="0 0 140 98" fill="none" xmlns="http://www.w3.org/2000/svg">
<g filter="url(#filter0_d_10_2)">
<path d="M126.047 70.8879C126.047 74.5716 125.571 77.6486 124.619 80.1189C123.708 82.5458 122.404 84.4961 120.707 85.9696C119.051 87.443 117.044 88.4832 114.684 89.0899C112.366 89.6966 109.821 90 107.048 90C104.274 90 101.729 89.6966 99.4106 89.0899C97.0927 88.4832 95.0851 87.443 93.388 85.9696C91.7323 84.4961 90.4285 82.5458 89.4764 80.1189C88.5658 77.6486 88.1105 74.5716 88.1105 70.8879V39.2944C88.1105 38.4277 88.5244 37.9943 89.3523 37.9943H99.4106C100.28 37.9943 100.715 38.4277 100.715 39.2944V71.3429C100.715 74.0299 101.191 76.0018 102.143 77.2586C103.136 78.4721 104.771 79.0788 107.048 79.0788C109.324 79.0788 110.959 78.4721 111.953 77.2586C112.946 76.0018 113.443 74.0299 113.443 71.3429V39.2944C113.443 38.4277 113.857 37.9943 114.684 37.9943H124.743C125.612 37.9943 126.047 38.4277 126.047 39.2944V70.8879Z" fill="black"/>
<path fill-rule="evenodd" clip-rule="evenodd" d="M68.5195 52.0358C68.2712 52.2959 68.0228 52.5992 67.7745 52.9459L49.8929 77.7787C49.6859 78.1254 49.5411 78.4287 49.4583 78.6888C49.3755 78.9054 49.3341 79.2088 49.3341 79.5989V87.7248C49.3341 88.5915 49.7687 89.0249 50.638 89.0249H84.3521C85.2214 89.0249 85.656 88.5915 85.656 87.7248V78.6238C85.656 77.757 85.2214 77.3236 84.3521 77.3236H65.353L82.4895 53.141C82.7378 52.7942 82.7999 52.4692 82.6758 52.1658C82.5516 51.8191 82.2618 51.6458 81.8065 51.6458H69.575C69.1611 51.6458 68.8093 51.7758 68.5195 52.0358Z" fill="black"/>
<path d="M51.5693 49.6956C50.7001 49.6956 50.2654 49.2622 50.2654 48.3954V39.2944C50.2654 38.4277 50.7001 37.9943 51.5693 37.9943H83.1725C84.0831 37.9943 84.5384 38.4277 84.5384 39.2944V48.3954C84.5384 49.2622 84.0831 49.6956 83.1725 49.6956H51.5693Z" fill="black"/>
<path d="M51.5693 49.6956C50.7001 49.6956 50.2654 49.2622 50.2654 48.3954V39.2944C50.2654 38.4277 50.7001 37.9943 51.5693 37.9943H83.1725C84.0831 37.9943 84.5384 38.4277 84.5384 39.2944V48.3954C84.5384 49.2622 84.0831 49.6956 83.1725 49.6956H51.5693Z" fill="white"/>
<path d="M46.8545 70.8879C46.8545 74.5716 46.3784 77.6486 45.4264 80.1189C44.5158 82.5458 43.2119 84.4961 41.5148 85.9696C39.8591 87.443 37.8516 88.4832 35.4922 89.0899C33.1742 89.6966 30.6286 90 27.8553 90C25.082 90 22.5364 89.6966 20.2184 89.0899C17.9004 88.4832 15.8929 87.443 14.1958 85.9696C12.5401 84.4961 11.2362 82.5458 10.2842 80.1189C9.37355 77.6486 8.91823 74.5716 8.91823 70.8879V39.2944C8.91823 38.4277 9.33216 37.9943 10.16 37.9943H20.2184C21.0876 37.9943 21.5222 38.4277 21.5222 39.2944V71.3429C21.5222 74.0299 21.9983 76.0018 22.9503 77.2586C23.9437 78.4721 25.5787 79.0788 27.8553 79.0788C30.1319 79.0788 31.7669 78.4721 32.7603 77.2586C33.7537 76.0018 34.2504 74.0299 34.2504 71.3429V39.2944C34.2504 38.4277 34.6644 37.9943 35.4922 37.9943H45.5506C46.4198 37.9943 46.8545 38.4277 46.8545 39.2944V70.8879Z" fill="white"/>
<path fill-rule="evenodd" clip-rule="evenodd" d="M14.6221 28.4102L14.6214 28.4077L14.6128 28.3784C14.6029 28.3446 14.5864 28.2874 14.5641 28.2085C14.5194 28.0505 14.4521 27.8066 14.3695 27.4904C14.2039 26.8561 13.98 25.9418 13.7561 24.8556C13.2971 22.6286 12.888 19.9131 12.8928 17.4733C12.898 14.8514 13.3837 13.7322 13.5805 13.4634C13.5962 13.4586 13.6175 13.4529 13.6453 13.4469C13.8794 13.3962 14.6046 13.3236 16.0592 13.7394C23.1807 15.7749 26.7637 18.7422 28.5145 20.7741C29.4081 21.8111 29.8889 22.6786 30.1268 23.1895C30.2467 23.447 30.3069 23.6183 30.3272 23.6799L30.3283 23.6833C31.0722 26.6507 33.9393 28.4819 36.8152 27.7901C39.7467 27.0849 41.5772 24.0249 40.9036 20.9556L35.5956 22.2325C40.9036 20.9556 40.9027 20.9512 40.9017 20.9468L40.8997 20.9379L40.8955 20.9192L40.8864 20.8793C40.8799 20.8514 40.8727 20.8211 40.8647 20.7884C40.8487 20.7231 40.8295 20.6484 40.8068 20.5647C40.7613 20.3973 40.7014 20.1939 40.6238 19.9585C40.4685 19.4876 40.2421 18.8879 39.9178 18.1915C39.2674 16.7947 38.2295 15.023 36.6023 13.1345C33.3113 9.31521 27.8432 5.28542 18.9278 2.73723C13.7191 1.24847 8.69875 1.91245 5.33731 6.00684C2.50531 9.45636 2.0067 14.1079 2.00007 17.4496C1.99291 21.0538 2.57408 24.6687 3.1084 27.2612C3.38118 28.5847 3.65464 29.7025 3.86226 30.4977C3.96633 30.8963 4.05456 31.2165 4.11884 31.444C4.15101 31.5578 4.17724 31.6487 4.19654 31.7147L4.22019 31.7951L4.2279 31.8209L4.2318 31.834C4.2318 31.834 4.23273 31.8371 9.42705 30.1224L4.23273 31.8371C5.13723 34.8407 8.19604 36.5078 11.0648 35.5608C13.9327 34.6141 15.525 31.413 14.6221 28.4102Z" fill="black"/>
<path fill-rule="evenodd" clip-rule="evenodd" d="M119.378 28.3991L119.379 28.3966L119.387 28.3673C119.397 28.3335 119.414 28.2763 119.436 28.1974C119.481 28.0394 119.548 27.7955 119.63 27.4793C119.796 26.845 120.02 25.9307 120.244 24.8445C120.703 22.6175 121.112 19.902 121.107 17.4622C121.102 14.8403 120.616 13.7211 120.419 13.4523C120.404 13.4475 120.382 13.4418 120.355 13.4358C120.121 13.3851 119.395 13.3126 117.941 13.7283C110.819 15.7638 107.236 18.7311 105.486 20.763C104.592 21.8001 104.111 22.6675 103.873 23.1784C103.753 23.4359 103.693 23.6072 103.673 23.6688L103.672 23.6722C102.928 26.6397 100.061 28.4708 97.1848 27.779C94.2533 27.0738 92.4228 24.0138 93.0964 20.9445L98.4044 22.2214C93.0964 20.9445 93.0973 20.9401 93.0983 20.9358L93.1003 20.9268L93.1045 20.9082L93.1136 20.8682C93.1201 20.8403 93.1273 20.81 93.1353 20.7773C93.1513 20.7121 93.1705 20.6373 93.1932 20.5536C93.2387 20.3862 93.2986 20.1828 93.3762 19.9474C93.5315 19.4765 93.7579 18.8768 94.0822 18.1804C94.7326 16.7836 95.7705 15.0119 97.3977 13.1234C100.689 9.30412 106.157 5.27433 115.072 2.72614C120.281 1.23738 125.301 1.90136 128.663 5.99575C131.495 9.44527 131.993 14.0968 132 17.4385C132.007 21.0427 131.426 24.6576 130.892 27.2501C130.619 28.5736 130.345 29.6914 130.138 30.4866C130.034 30.8852 129.945 31.2054 129.881 31.4329C129.849 31.5467 129.823 31.6376 129.803 31.7036L129.78 31.784L129.772 31.8099L129.768 31.8229C129.768 31.8229 129.767 31.826 124.573 30.1113L129.767 31.826C128.863 34.8296 125.804 36.4967 122.935 35.5497C120.067 34.603 118.475 31.4019 119.378 28.3991Z" fill="white"/>
</g>
<defs>
<filter id="filter0_d_10_2" x="0" y="0" width="140" height="98" filterUnits="userSpaceOnUse" color-interpolation-filters="sRGB">
<feFlood flood-opacity="0" result="BackgroundImageFix"/>
<feColorMatrix in="SourceAlpha" type="matrix" values="0 0 0 0 0 0 0 0 0 0 0 0 0 0 0 0 0 0 127 0" result="hardAlpha"/>
<feOffset dx="3" dy="3"/>
<feGaussianBlur stdDeviation="2.5"/>
<feComposite in2="hardAlpha" operator="out"/>
<feColorMatrix type="matrix" values="0 0 0 0 0 0 0 0 0 0 0 0 0 0 0 0 0 0 0.4 0"/>
<feBlend mode="normal" in2="BackgroundImageFix" result="effect1_dropShadow_10_2"/>
<feBlend mode="normal" in="SourceGraphic" in2="effect1_dropShadow_10_2" result="shape"/>
</filter>
</defs>
</svg>
