<svg width="20" height="17" viewBox="0 0 20 17" fill="none" xmlns="http://www.w3.org/2000/svg">
<path d="M18.4 13.7619C19.2837 13.7619 20 14.4868 20 15.381C20 16.2751 19.2837 17 18.4 17H1.6C0.716344 17 0 16.2751 0 15.381C0 14.4868 0.716344 13.7619 1.6 13.7619H18.4ZM18.4 6.88095C19.2837 6.88095 20 7.60582 20 8.5C20 9.39418 19.2837 10.119 18.4 10.119H1.6C0.716344 10.119 0 9.39418 0 8.5C0 7.60582 0.716344 6.88095 1.6 6.88095H18.4ZM18.4 0C19.2837 0 20 0.724872 20 1.61905C20 2.51322 19.2837 3.2381 18.4 3.2381H1.6C0.716344 3.2381 0 2.51322 0 1.61905C0 0.724872 0.716344 0 1.6 0H18.4Z" fill="#E07A5F"/>
</svg>
